<?xml version="1.0" encoding="UTF-8" standalone="no"?><!DOCTYPE svg PUBLIC "-//W3C//DTD SVG 1.1//EN" "http://www.w3.org/Graphics/SVG/1.1/DTD/svg11.dtd"><!-- Generated by graphviz version 2.40.1 (20161225.0304)
 --><!-- Title: G Pages: 1 --><svg xmlns="http://www.w3.org/2000/svg" xmlns:xlink="http://www.w3.org/1999/xlink" width="348pt" height="476pt" viewBox="0.00 0.00 348.06 476.00">
<g id="graph0" class="graph" transform="scale(1 1) rotate(0) translate(4 472)">
<title>G</title>
<polygon fill="#ffffff" stroke="transparent" points="-4,4 -4,-472 344.0561,-472 344.0561,4 -4,4"/>
<!-- n0 -->
<g id="node1" class="node">
<title>n0</title>
<ellipse fill="none" stroke="#000000" cx="216.777" cy="-450" rx="82.991" ry="18"/>
<text text-anchor="middle" x="216.777" y="-445.8" font-family="Times,serif" font-size="14.00" fill="#000000">每日定时器触发</text>
</g>
<!-- n1 -->
<g id="node2" class="node">
<title>n1</title>
<polygon fill="none" stroke="#000000" points="299.5887,-396 133.9653,-396 133.9653,-360 299.5887,-360 299.5887,-396"/>
<text text-anchor="middle" x="216.777" y="-373.8" font-family="Times,serif" font-size="14.00" fill="#000000">爬虫爬取腾讯新闻热榜</text>
</g>
<!-- n0&#45;&gt;n1 -->
<g id="edge1" class="edge">
<title>n0-&gt;n1</title>
<path fill="none" stroke="#000000" d="M216.777,-431.8314C216.777,-424.131 216.777,-414.9743 216.777,-406.4166"/>
<polygon fill="#000000" stroke="#000000" points="220.2771,-406.4132 216.777,-396.4133 213.2771,-406.4133 220.2771,-406.4132"/>
</g>
<!-- n2 -->
<g id="node3" class="node">
<title>n2</title>
<polygon fill="none" stroke="#000000" points="319.5331,-324 114.0209,-324 114.0209,-288 319.5331,-288 319.5331,-324"/>
<text text-anchor="middle" x="216.777" y="-301.8" font-family="Times,serif" font-size="14.00" fill="#000000">筛选24h内评论最多的20条新闻</text>
</g>
<!-- n1&#45;&gt;n2 -->
<g id="edge2" class="edge">
<title>n1-&gt;n2</title>
<path fill="none" stroke="#000000" d="M216.777,-359.8314C216.777,-352.131 216.777,-342.9743 216.777,-334.4166"/>
<polygon fill="#000000" stroke="#000000" points="220.2771,-334.4132 216.777,-324.4133 213.2771,-334.4133 220.2771,-334.4132"/>
</g>
<!-- n3 -->
<g id="node4" class="node">
<title>n3</title>
<polygon fill="none" stroke="#000000" points="243.3198,-252 82.2342,-252 82.2342,-216 243.3198,-216 243.3198,-252"/>
<text text-anchor="middle" x="162.777" y="-229.8" font-family="Times,serif" font-size="14.00" fill="#000000">ChatGPT总结新闻概要</text>
</g>
<!-- n2&#45;&gt;n3 -->
<g id="edge3" class="edge">
<title>n2-&gt;n3</title>
<path fill="none" stroke="#000000" d="M203.1505,-287.8314C196.931,-279.5386 189.4448,-269.557 182.617,-260.4533"/>
<polygon fill="#000000" stroke="#000000" points="185.387,-258.3133 176.587,-252.4133 179.787,-262.5133 185.387,-258.3133"/>
</g>
<!-- n5 -->
<g id="node6" class="node">
<title>n5</title>
<polygon fill="none" stroke="#000000" points="339.8359,-180 203.7181,-180 203.7181,-144 339.8359,-144 339.8359,-180"/>
<text text-anchor="middle" x="271.777" y="-157.8" font-family="Times,serif" font-size="14.00" fill="#000000">Pillow生成幻灯片图片</text>
</g>
<!-- n2&#45;&gt;n5 -->
<g id="edge5" class="edge">
<title>n2-&gt;n5</title>
<path fill="none" stroke="#000000" d="M231.6623,-287.5185C239.0232,-277.5296 247.449,-264.6716 252.777,-252 261.1076,-232.1876 265.9303,-208.3321 268.6311,-190.1605"/>
<polygon fill="#000000" stroke="#000000" points="272.1072,-190.5721 269.9865,-180.1917 265.1711,-189.6289 272.1072,-190.5721"/>
</g>
<!-- n4 -->
<g id="node5" class="node">
<title>n4</title>
<polygon fill="none" stroke="#000000" points="185.3315,-180 .2225,-180 .2225,-144 185.3315,-144 185.3315,-180"/>
<text text-anchor="middle" x="92.777" y="-157.8" font-family="Times,serif" font-size="14.00" fill="#000000">微软 TTS生成朗读音频</text>
</g>
<!-- n3&#45;&gt;n4 -->
<g id="edge4" class="edge">
<title>n3-&gt;n4</title>
<path fill="none" stroke="#000000" d="M145.113,-215.8314C136.8038,-207.2848 126.7506,-196.9443 117.6852,-187.6198"/>
<polygon fill="#000000" stroke="#000000" points="120.1591,-185.1435 110.6788,-180.4133 115.1401,-190.023 120.1591,-185.1435"/>
</g>
<!-- n3&#45;&gt;n5 -->
<g id="edge6" class="edge">
<title>n3-&gt;n5</title>
<path fill="none" stroke="#000000" d="M190.2823,-215.8314C204.095,-206.7074 221.0026,-195.539 235.8299,-185.7449"/>
<polygon fill="#000000" stroke="#000000" points="237.8656,-188.5949 244.2805,-180.1628 234.0074,-182.7541 237.8656,-188.5949"/>
</g>
<!-- n6 -->
<g id="node7" class="node">
<title>n6</title>
<polygon fill="none" stroke="#000000" points="244.4325,-108 119.1215,-108 119.1215,-72 244.4325,-72 244.4325,-108"/>
<text text-anchor="middle" x="181.777" y="-85.8" font-family="Times,serif" font-size="14.00" fill="#000000">moviepy合成视频</text>
</g>
<!-- n4&#45;&gt;n6 -->
<g id="edge7" class="edge">
<title>n4-&gt;n6</title>
<path fill="none" stroke="#000000" d="M115.2355,-143.8314C126.1975,-134.9632 139.5469,-124.1637 151.4035,-114.5718"/>
<polygon fill="#000000" stroke="#000000" points="153.7525,-117.1734 159.3257,-108.1628 149.3499,-111.7313 153.7525,-117.1734"/>
</g>
<!-- n5&#45;&gt;n6 -->
<g id="edge8" class="edge">
<title>n5-&gt;n6</title>
<path fill="none" stroke="#000000" d="M249.0662,-143.8314C237.981,-134.9632 224.4816,-124.1637 212.4918,-114.5718"/>
<polygon fill="#000000" stroke="#000000" points="214.4757,-111.6768 204.4805,-108.1628 210.1028,-117.1429 214.4757,-111.6768"/>
</g>
<!-- n7 -->
<g id="node8" class="node">
<title>n7</title>
<polygon fill="none" stroke="#000000" points="243.8766,-36 119.6774,-36 119.6774,0 243.8766,0 243.8766,-36"/>
<text text-anchor="middle" x="181.777" y="-13.8" font-family="Times,serif" font-size="14.00" fill="#000000">调用B站API上传</text>
</g>
<!-- n6&#45;&gt;n7 -->
<g id="edge9" class="edge">
<title>n6-&gt;n7</title>
<path fill="none" stroke="#000000" d="M181.777,-71.8314C181.777,-64.131 181.777,-54.9743 181.777,-46.4166"/>
<polygon fill="#000000" stroke="#000000" points="185.2771,-46.4132 181.777,-36.4133 178.2771,-46.4133 185.2771,-46.4132"/>
</g>
</g>
</svg>